<?xml version="1.0" standalone="no"?>
<!DOCTYPE svg PUBLIC "-//W3C//DTD SVG 20010904//EN"
 "http://www.w3.org/TR/2001/REC-SVG-20010904/DTD/svg10.dtd">
<svg version="1.0" xmlns="http://www.w3.org/2000/svg"
 width="331.000000pt" height="117.000000pt" viewBox="0 0 331.000000 117.000000"
 preserveAspectRatio="xMidYMid meet">

<g transform="translate(0.000000,117.000000) scale(0.100000,-0.100000)"
fill="#000000" stroke="none">
<path d="M532 1130 c-139 -67 -220 -83 -303 -60 -20 6 -44 19 -54 30 -10 11
-22 20 -27 20 -28 0 32 -133 75 -164 36 -26 133 -32 207 -12 30 8 56 13 57 12
2 -1 -20 -54 -48 -117 -28 -62 -64 -150 -81 -194 -16 -44 -35 -94 -43 -110 -7
-17 -32 -77 -54 -134 -66 -168 -147 -301 -174 -284 -6 4 -8 58 -4 145 5 123 3
141 -13 160 -27 33 -45 11 -58 -70 -12 -77 -2 -212 19 -239 34 -46 105 -113
119 -113 23 0 73 55 108 120 34 62 93 205 157 385 70 197 101 268 176 406 67
125 70 134 64 178 -7 49 -21 81 -33 81 -5 0 -45 -18 -90 -40z"/>
<path d="M2113 1124 c-87 -94 -240 -374 -313 -574 -38 -102 -96 -323 -105
-402 -7 -56 -7 -56 35 -102 57 -62 79 -61 144 7 57 59 172 224 171 247 0 15
-32 50 -45 50 -13 0 -56 -46 -129 -137 -40 -51 -77 -93 -82 -93 -5 0 -7 12 -3
27 49 218 99 370 172 525 51 109 148 271 188 316 l24 27 -26 -70 c-60 -159
-60 -159 -34 -194 12 -18 27 -30 33 -28 23 7 49 57 87 165 50 141 51 176 7
234 -46 60 -69 61 -124 2z"/>
<path d="M1276 1058 c-2 -7 -11 -47 -21 -88 -10 -41 -33 -129 -52 -195 -19
-66 -40 -142 -48 -170 -7 -27 -25 -92 -39 -143 -29 -104 -34 -151 -13 -135 6
6 20 9 29 8 13 -2 22 13 39 63 12 37 25 71 30 76 5 6 9 21 9 35 0 49 16 56 33
14 21 -54 110 -206 122 -209 6 -2 18 3 28 10 17 13 17 17 -3 77 -12 35 -37 93
-56 129 -19 35 -34 68 -34 72 0 4 24 25 54 47 76 57 118 132 73 131 -7 0 -43
-20 -82 -45 -38 -24 -70 -43 -71 -42 -1 1 13 55 31 119 18 64 36 141 40 171 6
50 5 55 -19 70 -30 20 -45 21 -50 5z"/>
<path d="M2637 1028 c-9 -53 -108 -400 -183 -636 -7 -24 -11 -49 -8 -57 7 -16
33 -9 52 14 10 14 11 13 7 -4 -3 -11 3 -2 14 20 11 22 20 46 20 54 1 7 10 30
20 50 32 61 143 428 156 514 7 43 6 46 -23 61 -43 22 -49 20 -55 -16z"/>
<path d="M2814 1033 c-3 -16 -10 -39 -14 -53 -5 -14 -30 -99 -54 -190 -25 -91
-64 -229 -87 -308 -31 -102 -39 -146 -32 -153 8 -8 17 -5 31 9 14 14 22 17 25
9 2 -7 12 13 21 43 10 30 26 73 36 95 44 99 150 459 150 510 0 24 -7 39 -22
49 -32 23 -47 20 -54 -11z"/>
<path d="M672 720 c-118 -79 -212 -207 -212 -289 0 -31 7 -49 31 -76 47 -53
64 -60 104 -41 19 9 43 28 53 41 11 14 22 25 25 25 2 0 7 -27 10 -60 5 -61 31
-120 56 -128 9 -3 11 2 6 17 -23 72 5 223 67 365 17 40 27 77 24 90 -7 29 -69
96 -88 96 -9 0 -43 -18 -76 -40z m72 -85 c-14 -39 -36 -88 -49 -110 -30 -52
-112 -131 -149 -145 l-29 -11 5 44 c5 45 38 101 98 167 18 19 39 44 49 56 14
18 93 74 98 70 1 -1 -9 -33 -23 -71z"/>
<path d="M1008 720 c-43 -36 -129 -152 -170 -228 -37 -70 -36 -111 1 -151 34
-37 65 -39 121 -11 53 27 65 51 42 80 l-18 23 -49 -22 c-26 -12 -50 -19 -52
-17 -7 7 37 87 82 151 49 68 87 106 128 127 l29 14 -27 32 c-15 18 -32 32 -39
32 -6 0 -28 -14 -48 -30z"/>
<path d="M2259 727 c-18 -12 -46 -43 -60 -67 -32 -52 -47 -96 -30 -86 6 4 2
-8 -8 -26 -35 -59 -46 -113 -31 -149 15 -34 82 -89 111 -89 20 0 104 61 104
76 0 14 67 104 77 104 14 0 39 69 40 111 1 72 -70 149 -138 149 -17 0 -46 -10
-65 -23z m139 -49 c7 -7 12 -21 12 -32 0 -32 -53 -136 -95 -186 -33 -40 -98
-90 -117 -90 -27 0 17 119 65 176 15 18 27 36 27 41 0 5 14 22 31 39 18 17 28
36 25 46 -3 13 2 18 18 18 12 0 27 -5 34 -12z"/>
<path d="M2917 743 c-4 -3 -7 -15 -7 -26 0 -12 -25 -103 -56 -204 -31 -101
-54 -186 -51 -190 3 -3 17 -3 31 1 18 4 29 19 42 53 9 27 21 52 26 58 4 5 8
16 8 26 0 9 15 45 33 80 41 81 67 145 67 164 0 25 -76 56 -93 38z"/>
<path d="M3083 730 c-38 -23 -48 -53 -38 -116 8 -58 35 -86 118 -124 34 -16
56 -29 49 -30 -8 0 -28 -6 -45 -14 -18 -8 -57 -22 -87 -32 -74 -23 -99 -43
-100 -76 0 -16 5 -28 10 -28 31 0 264 65 276 77 18 18 19 113 1 138 -8 10 -51
36 -97 59 -46 23 -85 46 -87 53 -10 29 120 41 195 18 18 -6 22 -3 22 12 0 28
-30 52 -86 69 -63 19 -93 18 -131 -6z"/>
</g>
</svg>
